<svg width="58" height="58" viewBox="0 0 58 58" fill="none" xmlns="http://www.w3.org/2000/svg">
<path d="M31.4408 31.871C32.9319 35.7691 34.0315 39.7807 34.7299 43.8891C29.3359 45.9698 23.5287 44.9621 19.1956 41.5812C22.3687 36.6077 26.419 33.3693 31.4408 31.871V31.871ZM30.16 28.7632C29.8144 27.9898 29.4568 27.2213 29.0798 26.4552C24.6017 27.8666 19.2488 28.5795 13.05 28.5892L13.0258 29C13.0258 32.8763 14.4178 36.4361 16.7258 39.2056C20.2251 33.9542 24.7152 30.4669 30.16 28.7632V28.7632ZM21.7935 14.7658C17.69 16.8514 14.6184 20.648 13.4995 25.2179C18.9032 25.1793 23.577 24.5872 27.4944 23.4368C25.8366 20.4668 23.9395 17.574 21.7935 14.7658V14.7658ZM38.7367 16.3681C36.0373 14.2849 32.6685 13.0282 29 13.0282C27.6443 13.0282 26.3368 13.2168 25.0826 13.5358C27.1923 16.3729 29.0653 19.2971 30.7038 22.2962C34.1161 20.851 36.7937 18.8718 38.7367 16.3681V16.3681ZM58 12.0833V45.9167C58 52.5891 52.5915 58 45.9167 58H12.0833C5.4085 58 0 52.5891 0 45.9167V12.0833C0 5.41092 5.4085 0 12.0833 0H45.9167C52.5915 0 58 5.41092 58 12.0833V12.0833ZM48.3333 29C48.3333 18.3232 39.6768 9.66667 29 9.66667C18.3232 9.66667 9.66667 18.3232 9.66667 29C9.66667 39.6768 18.3232 48.3333 29 48.3333C39.6768 48.3333 48.3333 39.6768 48.3333 29V29ZM32.248 25.2735C32.683 26.1701 33.089 27.0739 33.4853 27.9802C36.9629 27.3808 40.7788 27.4171 44.9258 28.0986C44.7228 24.5268 43.3598 21.2667 41.1872 18.6978C38.9591 21.4745 35.9673 23.664 32.248 25.2735V25.2735ZM34.7734 31.1629C36.1243 34.7783 37.1611 38.4854 37.8643 42.2748C41.4893 39.846 44.0534 35.9673 44.7615 31.4795C41.122 30.8488 37.7943 30.7376 34.7734 31.1629V31.1629Z" fill="url(#paint0_linear)"/>
<defs>
<linearGradient id="paint0_linear" x1="29" y1="0" x2="29" y2="58" gradientUnits="userSpaceOnUse">
<stop stop-color="#B4DCDC"/>
<stop offset="1" stop-color="#1C94A4"/>
</linearGradient>
</defs>
</svg>
